<?xml version="1.0" encoding="iso-8859-1"?>
<!-- Generator: Adobe Illustrator 19.0.0, SVG Export Plug-In . SVG Version: 6.00 Build 0)  -->
<svg version="1.1" id="Capa_1" xmlns="http://www.w3.org/2000/svg" xmlns:xlink="http://www.w3.org/1999/xlink" x="0px" y="0px"
	 viewBox="0 0 512 512" style="enable-background:new 0 0 512 512;" xml:space="preserve">
<g>
	<g>
		<path d="M476.431,128.25H371.726V55.609C371.726,24.946,346.78,0,316.117,0h-48.094c-18.948,0-35.705,9.533-45.748,24.047h-18.377
			c-30.663,0-55.609,24.946-55.609,55.609v48.595H35.569c-4.15,0-7.515,3.365-7.515,7.515v56.611c0,4.15,3.365,7.515,7.515,7.515
			c4.15,0,7.515-3.365,7.515-7.515V143.28H148.29v22.548c-7.054,2.951-12.023,9.919-12.023,18.031
			c0,10.773,8.765,19.538,19.538,19.538c10.773,0,19.538-8.765,19.538-19.538c0-8.111-4.97-15.08-12.023-18.031V143.28h17.632
			c3.614,22.684,23.309,40.078,46.994,40.078c23.685,0,43.38-17.394,46.994-40.078h17.632v22.548
			c-7.053,2.951-12.023,9.919-12.023,18.031c0,10.773,8.765,19.538,19.538,19.538c10.773,0,19.538-8.765,19.538-19.538
			c0-8.111-4.971-15.08-12.023-18.031V143.28h105.206v353.691H43.084V228.446c0-4.15-3.365-7.515-7.515-7.515
			c-4.15,0-7.515,3.364-7.515,7.515v276.039c0,4.15,3.365,7.515,7.515,7.515h440.861c4.151,0,7.515-3.365,7.515-7.515v-368.72
			C483.945,131.615,480.582,128.25,476.431,128.25z M155.804,188.368c-2.486,0-4.509-2.023-4.509-4.509
			c0-2.486,2.023-4.509,4.509-4.509c2.486,0,4.509,2.023,4.509,4.509C160.313,186.345,158.29,188.368,155.804,188.368z
			 M163.319,128.25V79.656c0-22.376,18.204-40.579,40.579-40.579h11.026c-1.63,5.224-2.509,10.778-2.509,16.532v72.642H163.319z
			 M227.945,168.329c-15.37,0-28.287-10.704-31.688-25.049h63.377C256.232,157.625,243.315,168.329,227.945,168.329z
			 M292.571,128.25h-65.127V55.609c0-5.886,1.271-11.478,3.535-16.532h21.013c22.376,0,40.579,18.204,40.579,40.579V128.25z
			 M300.086,188.368c-2.486,0-4.509-2.023-4.509-4.509c0-2.486,2.023-4.509,4.509-4.509s4.509,2.023,4.509,4.509
			C304.595,186.345,302.572,188.368,300.086,188.368z M356.697,128.25h-49.096V79.656c0-30.663-24.946-55.609-55.609-55.609h-9.434
			c6.969-5.634,15.828-9.018,25.466-9.018h48.094c22.376,0,40.579,18.204,40.579,40.579V128.25z M468.916,496.971h-41.08V143.28
			h41.08V496.971z"/>
	</g>
</g>
<g>
	<g>
		<path d="M340.164,352.689H235.46V247.984c0-4.15-3.365-7.515-7.515-7.515c-66.022,0-119.734,53.712-119.734,119.734
			s53.712,119.734,119.734,119.734s119.734-53.712,119.734-119.734C347.679,356.053,344.315,352.689,340.164,352.689z
			 M263.542,367.718h8.964c0.018,0.161,0.027,0.328,0.027,0.501c0,2.486-2.023,4.509-4.509,4.509s-4.509-2.023-4.509-4.509
			C263.515,368.046,263.525,367.88,263.542,367.718z M227.945,367.718h20.563c-0.004,0.167-0.023,0.334-0.023,0.501
			c0,10.773,8.765,19.538,19.538,19.538c10.773,0,19.538-8.765,19.538-19.538c0-0.167-0.019-0.334-0.023-0.501h20.716
			c-3.8,40.966-38.368,73.143-80.31,73.143c-44.475,0-80.658-36.183-80.658-80.658c0-41.942,32.177-76.509,73.143-80.311v80.311
			C220.43,364.354,223.795,367.718,227.945,367.718z M227.945,464.908c-57.735,0-104.704-46.97-104.704-104.705
			c0-55.208,42.949-100.572,97.19-104.438v9.045c-49.263,3.846-88.172,45.16-88.172,95.393c0,52.762,42.925,95.687,95.687,95.687
			c50.233,0,91.548-38.909,95.393-88.172h9.045C328.518,421.959,283.153,464.908,227.945,464.908z"/>
	</g>
</g>
<g>
	<g>
		<path d="M260.008,208.908c-4.151,0-7.515,3.365-7.515,7.515v112.219c0,4.15,3.364,7.515,7.515,7.515h112.219
			c4.151,0,7.515-3.365,7.515-7.515C379.742,262.62,326.03,208.908,260.008,208.908z M326.133,321.127
			c-2.951-7.054-9.919-12.023-18.031-12.023c-8.112,0-15.08,4.97-18.031,12.023h-22.548v-72.796
			c38.492,3.571,69.224,34.303,72.795,72.796H326.133z M355.4,321.127c-3.652-46.782-41.095-84.227-87.879-87.879v-9.045
			c51.759,3.688,93.236,45.165,96.923,96.923H355.4z"/>
	</g>
</g>
<g>
	<g>
		<path d="M195.883,300.587c-10.773,0-19.538,8.765-19.538,19.538s8.765,19.538,19.538,19.538c10.773,0,19.538-8.765,19.538-19.538
			S206.656,300.587,195.883,300.587z M195.883,324.634c-2.486,0-4.509-2.023-4.509-4.509s2.023-4.509,4.509-4.509
			c2.486,0,4.509,2.023,4.509,4.509S198.368,324.634,195.883,324.634z"/>
	</g>
</g>
<g>
	<g>
		<path d="M292.07,268.524c-10.773,0-19.538,8.765-19.538,19.538s8.765,19.538,19.538,19.538s19.538-8.765,19.538-19.538
			S302.844,268.524,292.07,268.524z M292.07,292.571c-2.486,0-4.509-2.023-4.509-4.509s2.023-4.509,4.509-4.509
			s4.509,2.023,4.509,4.509S294.556,292.571,292.07,292.571z"/>
	</g>
</g>
<g>
	<g>
		<path d="M179.851,348.681c-10.773,0-19.538,8.765-19.538,19.538s8.765,19.538,19.538,19.538c10.773,0,19.538-8.765,19.538-19.538
			S190.624,348.681,179.851,348.681z M179.851,372.728c-2.486,0-4.509-2.023-4.509-4.509s2.023-4.509,4.509-4.509
			c2.486,0,4.509,2.023,4.509,4.509S182.337,372.728,179.851,372.728z"/>
	</g>
</g>
<g>
	<g>
		<path d="M227.945,388.759c-10.773,0-19.538,8.765-19.538,19.538c0,10.773,8.765,19.538,19.538,19.538
			c10.773,0,19.538-8.765,19.538-19.538C247.483,397.524,238.718,388.759,227.945,388.759z M227.945,412.806
			c-2.486,0-4.509-2.023-4.509-4.509c0-2.486,2.023-4.509,4.509-4.509c2.486,0,4.509,2.023,4.509,4.509
			C232.454,410.783,230.431,412.806,227.945,412.806z"/>
	</g>
</g>
<g>
</g>
<g>
</g>
<g>
</g>
<g>
</g>
<g>
</g>
<g>
</g>
<g>
</g>
<g>
</g>
<g>
</g>
<g>
</g>
<g>
</g>
<g>
</g>
<g>
</g>
<g>
</g>
<g>
</g>
</svg>
